<svg width="1920" height="900" viewBox="0 0 1920 900" fill="none" xmlns="http://www.w3.org/2000/svg">
<rect width="1920" height="900" fill="#C4C4C4"/>
<g clip-path="url(#clip0)">
<path d="M1740.65 77.2937H1182.35H1115.89C1093.87 77.2937 1076 95.1592 1076 117.185V582.431H1182.35H1381.74H1541.26H1740.66H1847V117.185C1847 95.1592 1829.13 77.2922 1807.11 77.2922H1740.65V77.2937Z" fill="#E7ECED"/>
<path d="M1793.83 130.466H1129.17V555.845H1793.83V130.466Z" fill="#28384C"/>
<path d="M1248.81 183.638V436.206H1565.28L1621.02 380.349V183.638H1248.81Z" fill="#E7ECED"/>
<path d="M1807.11 662.189H1115.89C1093.87 662.189 1076 644.324 1076 622.297V555.845H1847V622.297C1847 644.324 1829.13 662.189 1807.11 662.189Z" fill="#AFB6BB"/>
<path d="M1501.38 622.311H1421.62C1414.28 622.311 1408.33 616.355 1408.33 609.017C1408.33 601.679 1414.28 595.723 1421.62 595.723H1501.38C1508.72 595.723 1514.67 601.679 1514.67 609.017C1514.67 616.355 1508.72 622.311 1501.38 622.311Z" fill="white"/>
<path d="M1634.31 821.706H1288.69C1274 821.706 1262.1 809.808 1262.1 795.12C1262.1 780.432 1274 768.534 1288.69 768.534H1634.31C1649 768.534 1660.9 780.432 1660.9 795.12C1660.9 809.81 1649 821.706 1634.31 821.706Z" fill="#AFB6BB"/>
<path d="M1527.97 662.189H1395.03C1395.03 720.972 1374.06 768.534 1315.28 768.534H1607.72C1548.94 768.534 1527.97 720.972 1527.97 662.189Z" fill="#6C797A"/>
<path d="M1688.51 465.08L1648.27 424.842C1647.58 424.15 1647.58 423.033 1648.27 422.342L1674.27 396.327L1541.34 356.447L1581.22 489.378L1606.55 464.042C1608.14 462.461 1610.7 462.461 1612.3 464.042L1650.91 502.672L1688.51 465.08Z" fill="url(#paint0_linear)"/>
<path d="M1621.02 183.638H1248.81V250.103H1621.02V183.638Z" fill="#556080"/>
<path d="M1408.33 329.862H1301.98V383.034H1408.33V329.862Z" fill="#DD352E"/>
</g>
<rect width="1920" height="900" fill="url(#paint1_linear)" style="mix-blend-mode:darken"/>
<defs>
<linearGradient id="paint0_linear" x1="1614.92" y1="356.447" x2="1614.92" y2="502.672" gradientUnits="userSpaceOnUse">
<stop stop-color="#4DA13F"/>
<stop offset="1" stop-color="#4DA13F" stop-opacity="0.53"/>
</linearGradient>
<linearGradient id="paint1_linear" x1="1.43051e-05" y1="450" x2="1920" y2="450" gradientUnits="userSpaceOnUse">
<stop stop-color="#4DA13F"/>
<stop offset="0.578125" stop-color="#4DA13F" stop-opacity="0.69"/>
<stop offset="1" stop-color="#4DA13F" stop-opacity="0.52"/>
</linearGradient>
<clipPath id="clip0">
<rect width="771" height="771" fill="white" transform="translate(1076 64)"/>
</clipPath>
</defs>
</svg>
