<svg width="1920" height="900" viewBox="0 0 1920 900" fill="none" xmlns="http://www.w3.org/2000/svg">
<rect width="1920" height="900" fill="#C4C4C4"/>
<path d="M1207.35 787.645H1229.81V810.097H1207.35V787.645Z" fill="#E9F9E2"/>
<path d="M1252.26 787.645H1274.71V810.097H1252.26V787.645Z" fill="#E9F9E2"/>
<path d="M1297.16 787.645H1319.61V810.097H1297.16V787.645Z" fill="#E9F9E2"/>
<path d="M1678.84 787.645H1768.65V810.097H1678.84V787.645Z" fill="#E9F9E2"/>
<path d="M1813.55 742.742V372.29C1813.55 341.343 1788.37 316.161 1757.42 316.161H1723.74C1723.74 229.496 1653.25 159 1566.58 159C1479.92 159 1409.42 229.496 1409.42 316.161H1218.58C1187.63 316.161 1162.45 341.343 1162.45 372.29V742.742H1140V798.871C1140 829.819 1165.18 855 1196.13 855H1779.87C1810.82 855 1836 829.819 1836 798.871V742.742H1813.55ZM1757.42 338.613C1775.98 338.613 1791.1 353.725 1791.1 372.29V742.742H1768.65V383.516C1768.65 371.134 1758.58 361.065 1746.19 361.065H1717.12C1719.29 353.791 1720.85 346.281 1721.94 338.613H1757.42ZM1438.39 274.909L1557.54 324.559L1598.34 446.93C1588.13 449.413 1577.54 450.871 1566.58 450.871C1492.3 450.871 1431.87 390.445 1431.87 316.161C1431.87 301.767 1434.2 287.916 1438.39 274.909ZM1619.67 439.925L1579.42 319.192L1669.34 229.271C1689.23 252.748 1701.29 283.054 1701.29 316.161C1701.29 371.594 1667.61 419.282 1619.67 439.925ZM1566.58 181.452C1599.69 181.452 1629.99 193.511 1653.48 213.391L1563.97 302.902L1447.09 254.217C1469.56 211.045 1514.64 181.452 1566.58 181.452ZM1184.9 372.29C1184.9 353.725 1200.02 338.613 1218.58 338.613H1411.22C1412.31 346.281 1413.86 353.791 1416.04 361.065H1229.81C1217.42 361.065 1207.35 371.134 1207.35 383.516V742.742H1184.9V372.29ZM1813.55 798.871C1813.55 817.436 1798.44 832.548 1779.87 832.548H1196.13C1177.56 832.548 1162.45 817.436 1162.45 798.871V765.194H1393.73C1409.87 779.708 1430.52 787.645 1452.4 787.645H1523.61C1545.49 787.645 1566.14 779.708 1582.28 765.194H1723.74V742.742H1573.16L1569.87 746.031C1557.51 758.391 1541.09 765.194 1523.6 765.194H1452.39C1434.91 765.194 1418.48 758.391 1406.12 746.031L1402.84 742.742H1229.81V383.516H1424.8C1450.09 436.526 1504.04 473.323 1566.58 473.323C1629.12 473.323 1683.07 436.526 1708.36 383.516H1746.19V765.194H1813.55V798.871Z" fill="#E9F9E2"/>
<path d="M1690.06 630.484C1683.17 630.484 1676.76 632.583 1671.42 636.152L1632.25 606.788C1633.25 603.609 1633.94 600.298 1633.94 596.806C1633.94 578.241 1618.82 563.129 1600.26 563.129C1581.69 563.129 1566.58 578.241 1566.58 596.806C1566.58 600.671 1567.36 604.327 1568.56 607.786L1505.69 658.088C1500.54 654.876 1494.51 652.935 1488 652.935C1480.45 652.935 1473.54 655.528 1467.92 659.738L1419.51 627.464C1420.18 624.827 1420.65 622.108 1420.65 619.258C1420.65 600.693 1405.53 585.581 1386.97 585.581C1368.4 585.581 1353.29 600.693 1353.29 619.258C1353.29 622.108 1353.75 624.827 1354.42 627.464L1306.02 659.738C1300.4 655.517 1293.49 652.935 1285.94 652.935C1267.37 652.935 1252.26 668.048 1252.26 686.613C1252.26 705.178 1267.37 720.29 1285.94 720.29C1304.5 720.29 1319.61 705.178 1319.61 686.613C1319.61 683.763 1319.15 681.044 1318.48 678.407L1366.88 646.133C1372.51 650.354 1379.41 652.935 1386.97 652.935C1394.52 652.935 1401.43 650.354 1407.05 646.133L1455.46 678.407C1454.78 681.044 1454.32 683.774 1454.32 686.613C1454.32 705.178 1469.43 720.29 1488 720.29C1506.57 720.29 1521.68 705.178 1521.68 686.613C1521.68 682.749 1520.89 679.093 1519.69 675.634L1582.56 625.331C1587.72 628.543 1593.75 630.484 1600.26 630.484C1607.15 630.484 1613.56 628.385 1618.91 624.816L1658.07 654.18C1657.07 657.359 1656.39 660.67 1656.39 664.161C1656.39 682.727 1671.5 697.839 1690.06 697.839C1708.63 697.839 1723.74 682.727 1723.74 664.161C1723.74 645.596 1708.63 630.484 1690.06 630.484ZM1285.94 697.839C1279.75 697.839 1274.71 692.796 1274.71 686.613C1274.71 680.43 1279.75 675.387 1285.94 675.387C1292.12 675.387 1297.16 680.43 1297.16 686.613C1297.16 692.796 1292.12 697.839 1285.94 697.839ZM1386.97 630.484C1380.78 630.484 1375.74 625.441 1375.74 619.258C1375.74 613.075 1380.78 608.032 1386.97 608.032C1393.15 608.032 1398.19 613.075 1398.19 619.258C1398.19 625.441 1393.15 630.484 1386.97 630.484ZM1488 697.839C1481.82 697.839 1476.77 692.796 1476.77 686.613C1476.77 680.43 1481.82 675.387 1488 675.387C1494.18 675.387 1499.23 680.43 1499.23 686.613C1499.23 692.796 1494.18 697.839 1488 697.839ZM1600.26 608.032C1594.08 608.032 1589.03 602.989 1589.03 596.806C1589.03 590.623 1594.08 585.581 1600.26 585.581C1606.44 585.581 1611.48 590.623 1611.48 596.806C1611.48 602.989 1606.44 608.032 1600.26 608.032ZM1690.06 675.387C1683.88 675.387 1678.84 670.344 1678.84 664.161C1678.84 657.978 1683.88 652.935 1690.06 652.935C1696.25 652.935 1701.29 657.978 1701.29 664.161C1701.29 670.344 1696.25 675.387 1690.06 675.387Z" fill="#E9F9E2"/>
<path d="M1431.87 405.968H1252.26V563.129H1431.87V405.968ZM1409.42 540.677H1274.71V428.419H1409.42V540.677Z" fill="#E9F9E2"/>
<path d="M1297.16 450.871H1386.97V473.323H1297.16V450.871Z" fill="#E9F9E2"/>
<path d="M1297.16 495.774H1386.97V518.226H1297.16V495.774Z" fill="#E9F9E2"/>
<path d="M1454.32 518.226H1476.77V540.677H1454.32V518.226Z" fill="#E9F9E2"/>
<path d="M1499.23 518.226H1723.74V540.677H1499.23V518.226Z" fill="#E9F9E2"/>
<rect width="1920" height="900" fill="url(#paint0_linear)" style="mix-blend-mode:darken"/>
<defs>
<linearGradient id="paint0_linear" x1="1.43051e-05" y1="450" x2="1920" y2="450" gradientUnits="userSpaceOnUse">
<stop stop-color="#4DA13F" stop-opacity="0.86"/>
<stop offset="0.578125" stop-color="#4DA13F" stop-opacity="0.85"/>
<stop offset="1" stop-color="#4DA13F" stop-opacity="0.84"/>
</linearGradient>
</defs>
</svg>
